Normalized EMG Linear Envelopes
nRows=59
nColumns=17

endheader
time	        VM	        VL	        RF	       GRA	        TA	   ADDLONG	   SEMIMEM	      BFLH	        GM	        GL	       TFL	   GLUTMAX	   GLUTMED	      PIRI	    OBTINT	        QF	
2.385	  0.514851	  0.760517	  0.072255	  0.583389	  0.426406	  0.228323	  0.651802	  0.909644	  0.438445	  0.190172	  0.044129	  0.615897	  0.499661	  0.730926	  0.620257	  0.859819	
2.3855	  0.519224	  0.768488	  0.073241	  0.580837	  0.425120	  0.226229	  0.650173	  0.905612	  0.440294	  0.192639	  0.044788	  0.620295	  0.502566	  0.734073	  0.620801	  0.863184	
2.386	  0.523580	  0.776393	  0.074224	  0.578263	  0.423809	  0.224133	  0.648515	  0.901487	  0.442126	  0.195142	  0.045450	  0.624658	  0.505464	  0.737192	  0.621324	  0.866496	
2.3865	  0.527915	  0.784225	  0.075203	  0.575667	  0.422470	  0.222035	  0.646825	  0.897270	  0.443937	  0.197682	  0.046116	  0.628983	  0.508352	  0.740280	  0.621825	  0.869752	
2.387	  0.532229	  0.791977	  0.076178	  0.573049	  0.421103	  0.219937	  0.645104	  0.892961	  0.445728	  0.200258	  0.046785	  0.633270	  0.511227	  0.743336	  0.622303	  0.872952	
2.3875	  0.536517	  0.799644	  0.077148	  0.570409	  0.419708	  0.217840	  0.643352	  0.888562	  0.447496	  0.202870	  0.047458	  0.637516	  0.514086	  0.746357	  0.622757	  0.876095	
2.388	  0.540778	  0.807219	  0.078114	  0.567747	  0.418283	  0.215745	  0.641569	  0.884072	  0.449242	  0.205518	  0.048135	  0.641719	  0.516926	  0.749341	  0.623186	  0.879178	
2.3885	  0.545008	  0.814695	  0.079075	  0.565064	  0.416827	  0.213653	  0.639755	  0.879495	  0.450963	  0.208203	  0.048814	  0.645877	  0.519743	  0.752287	  0.623591	  0.882200	
2.389	  0.549204	  0.822066	  0.080031	  0.562361	  0.415340	  0.211564	  0.637910	  0.874829	  0.452658	  0.210923	  0.049497	  0.649988	  0.522534	  0.755193	  0.623971	  0.885160	
2.3895	  0.553363	  0.829323	  0.080982	  0.559639	  0.413820	  0.209479	  0.636036	  0.870077	  0.454329	  0.213680	  0.050183	  0.654050	  0.525295	  0.758055	  0.624326	  0.888055	
2.39	  0.557483	  0.836461	  0.081928	  0.556897	  0.412266	  0.207400	  0.634133	  0.865239	  0.455975	  0.216473	  0.050872	  0.658059	  0.528022	  0.760872	  0.624655	  0.890885	
2.3905	  0.561560	  0.843473	  0.082867	  0.554138	  0.410678	  0.205327	  0.632202	  0.860317	  0.457595	  0.219302	  0.051564	  0.662014	  0.530711	  0.763642	  0.624958	  0.893649	
2.391	  0.565590	  0.850351	  0.083800	  0.551361	  0.409053	  0.203261	  0.630243	  0.855314	  0.459191	  0.222167	  0.052258	  0.665911	  0.533359	  0.766361	  0.625234	  0.896344	
2.3915	  0.569571	  0.857089	  0.084727	  0.548569	  0.407391	  0.201202	  0.628257	  0.850229	  0.460762	  0.225068	  0.052955	  0.669750	  0.535962	  0.769028	  0.625483	  0.898969	
2.392	  0.573499	  0.863681	  0.085646	  0.545762	  0.405692	  0.199151	  0.626246	  0.845065	  0.462308	  0.228006	  0.053655	  0.673526	  0.538517	  0.771640	  0.625703	  0.901524	
2.3925	  0.577370	  0.870120	  0.086558	  0.542941	  0.403953	  0.197110	  0.624209	  0.839823	  0.463831	  0.230980	  0.054356	  0.677240	  0.541019	  0.774196	  0.625895	  0.904006	
2.393	  0.581181	  0.876401	  0.087462	  0.540106	  0.402174	  0.195078	  0.622147	  0.834507	  0.465329	  0.233990	  0.055060	  0.680889	  0.543465	  0.776695	  0.626057	  0.906415	
2.3935	  0.584929	  0.882518	  0.088358	  0.537259	  0.400355	  0.193056	  0.620060	  0.829119	  0.466805	  0.237037	  0.055765	  0.684472	  0.545853	  0.779136	  0.626189	  0.908750	
2.394	  0.588611	  0.888465	  0.089246	  0.534400	  0.398494	  0.191044	  0.617949	  0.823662	  0.468257	  0.240120	  0.056472	  0.687988	  0.548180	  0.781517	  0.626288	  0.911009	
2.3945	  0.592223	  0.894238	  0.090124	  0.531530	  0.396592	  0.189044	  0.615813	  0.818140	  0.469687	  0.243239	  0.057180	  0.691436	  0.550442	  0.783837	  0.626353	  0.913190	
2.395	  0.595765	  0.899830	  0.090992	  0.528648	  0.394646	  0.187056	  0.613653	  0.812558	  0.471094	  0.246396	  0.057889	  0.694814	  0.552639	  0.786096	  0.626384	  0.915292	
2.3955	  0.599233	  0.905238	  0.091850	  0.525755	  0.392657	  0.185079	  0.611469	  0.806919	  0.472480	  0.249589	  0.058600	  0.698120	  0.554766	  0.788294	  0.626379	  0.917315	
2.396	  0.602624	  0.910457	  0.092698	  0.522853	  0.390623	  0.183114	  0.609263	  0.801226	  0.473845	  0.252820	  0.059311	  0.701353	  0.556823	  0.790428	  0.626336	  0.919255	
2.3965	  0.605937	  0.915482	  0.093534	  0.519940	  0.388545	  0.181163	  0.607034	  0.795484	  0.475188	  0.256087	  0.060022	  0.704512	  0.558807	  0.792499	  0.626254	  0.921113	
2.397	  0.609170	  0.920312	  0.094358	  0.517018	  0.386421	  0.179224	  0.604785	  0.789695	  0.476511	  0.259390	  0.060734	  0.707594	  0.560715	  0.794507	  0.626133	  0.922886	
2.3975	  0.612322	  0.924945	  0.095170	  0.514088	  0.384252	  0.177298	  0.602516	  0.783863	  0.477814	  0.262730	  0.061445	  0.710598	  0.562545	  0.796452	  0.625973	  0.924574	
2.398	  0.615392	  0.929378	  0.095969	  0.511149	  0.382038	  0.175386	  0.600229	  0.777993	  0.479097	  0.266106	  0.062156	  0.713522	  0.564295	  0.798334	  0.625774	  0.926175	
2.3985	  0.618380	  0.933610	  0.096754	  0.508202	  0.379781	  0.173488	  0.597926	  0.772086	  0.480359	  0.269519	  0.062867	  0.716364	  0.565963	  0.800152	  0.625536	  0.927687	
2.399	  0.621284	  0.937640	  0.097526	  0.505247	  0.377480	  0.171604	  0.595607	  0.766148	  0.481601	  0.272967	  0.063576	  0.719123	  0.567550	  0.801908	  0.625259	  0.929109	
2.3995	  0.624105	  0.941467	  0.098282	  0.502285	  0.375137	  0.169735	  0.593276	  0.760183	  0.482822	  0.276450	  0.064284	  0.721796	  0.569053	  0.803601	  0.624943	  0.930439	
2.4	  0.626841	  0.945091	  0.099023	  0.499316	  0.372753	  0.167880	  0.590934	  0.754195	  0.484022	  0.279968	  0.064991	  0.724380	  0.570474	  0.805231	  0.624590	  0.931676	
2.4005	  0.629492	  0.948509	  0.099749	  0.496340	  0.370329	  0.166041	  0.588582	  0.748188	  0.485200	  0.283521	  0.065696	  0.726875	  0.571812	  0.806798	  0.624198	  0.932819	
2.401	  0.632057	  0.951720	  0.100458	  0.493358	  0.367867	  0.164217	  0.586222	  0.742166	  0.486357	  0.287109	  0.066399	  0.729277	  0.573069	  0.808303	  0.623769	  0.933864	
2.4015	  0.634534	  0.954724	  0.101150	  0.490370	  0.365367	  0.162409	  0.583856	  0.736132	  0.487492	  0.290731	  0.067099	  0.731586	  0.574243	  0.809746	  0.623301	  0.934811	
2.402	  0.636924	  0.957517	  0.101825	  0.487377	  0.362832	  0.160617	  0.581485	  0.730090	  0.488604	  0.294386	  0.067796	  0.733797	  0.575336	  0.811126	  0.622795	  0.935658	
2.4025	  0.639224	  0.960100	  0.102481	  0.484379	  0.360263	  0.158841	  0.579109	  0.724045	  0.489693	  0.298074	  0.068490	  0.735910	  0.576348	  0.812445	  0.622252	  0.936403	
2.403	  0.641434	  0.962471	  0.103120	  0.481378	  0.357663	  0.157080	  0.576731	  0.718000	  0.490759	  0.301795	  0.069180	  0.737922	  0.577278	  0.813701	  0.621669	  0.937046	
2.4035	  0.643553	  0.964631	  0.103740	  0.478372	  0.355033	  0.155336	  0.574351	  0.711959	  0.491800	  0.305549	  0.069867	  0.739832	  0.578128	  0.814896	  0.621047	  0.937585	
2.404	  0.645581	  0.966579	  0.104341	  0.475363	  0.352376	  0.153608	  0.571970	  0.705925	  0.492817	  0.309334	  0.070549	  0.741636	  0.578897	  0.816029	  0.620386	  0.938019	
2.4045	  0.647516	  0.968316	  0.104923	  0.472352	  0.349694	  0.151896	  0.569588	  0.699900	  0.493809	  0.313150	  0.071227	  0.743332	  0.579585	  0.817098	  0.619686	  0.938348	
2.405	  0.649357	  0.969844	  0.105485	  0.469338	  0.346990	  0.150202	  0.567208	  0.693890	  0.494777	  0.316996	  0.071901	  0.744918	  0.580192	  0.818105	  0.618945	  0.938570	
2.4055	  0.651104	  0.971164	  0.106029	  0.466323	  0.344264	  0.148524	  0.564829	  0.687895	  0.495720	  0.320873	  0.072569	  0.746393	  0.580718	  0.819048	  0.618164	  0.938687	
2.406	  0.652757	  0.972279	  0.106553	  0.463307	  0.341520	  0.146865	  0.562452	  0.681920	  0.496638	  0.324778	  0.073233	  0.747753	  0.581164	  0.819926	  0.617342	  0.938698	
2.4065	  0.654315	  0.973191	  0.107057	  0.460290	  0.338760	  0.145223	  0.560078	  0.675966	  0.497531	  0.328712	  0.073891	  0.748996	  0.581528	  0.820739	  0.616479	  0.938602	
2.407	  0.655778	  0.973901	  0.107542	  0.457274	  0.335986	  0.143599	  0.557708	  0.670035	  0.498398	  0.332674	  0.074543	  0.750121	  0.581813	  0.821485	  0.615574	  0.938401	
2.4075	  0.657146	  0.974411	  0.108007	  0.454258	  0.333199	  0.141993	  0.555341	  0.664131	  0.499239	  0.336663	  0.075190	  0.751124	  0.582017	  0.822165	  0.614626	  0.938093	
2.408	  0.658419	  0.974723	  0.108453	  0.451244	  0.330402	  0.140406	  0.552979	  0.658255	  0.500054	  0.340678	  0.075830	  0.752002	  0.582142	  0.822777	  0.613635	  0.937680	
2.4085	  0.659595	  0.974839	  0.108880	  0.448232	  0.327597	  0.138838	  0.550622	  0.652409	  0.500843	  0.344719	  0.076463	  0.752755	  0.582188	  0.823321	  0.612601	  0.937162	
2.409	  0.660675	  0.974761	  0.109288	  0.445222	  0.324786	  0.137289	  0.548271	  0.646596	  0.501605	  0.348785	  0.077090	  0.753378	  0.582155	  0.823794	  0.611523	  0.936538	
2.4095	  0.661659	  0.974491	  0.109677	  0.442216	  0.321971	  0.135759	  0.545926	  0.640817	  0.502340	  0.352874	  0.077709	  0.753871	  0.582043	  0.824197	  0.610400	  0.935810	
2.41	  0.662546	  0.974032	  0.110046	  0.439214	  0.319154	  0.134248	  0.543590	  0.635075	  0.503049	  0.356986	  0.078321	  0.754232	  0.581853	  0.824528	  0.609232	  0.934977	
2.4105	  0.663336	  0.973388	  0.110397	  0.436216	  0.316337	  0.132756	  0.541262	  0.629372	  0.503732	  0.361121	  0.078925	  0.754459	  0.581585	  0.824784	  0.608018	  0.934040	
2.411	  0.664029	  0.972561	  0.110728	  0.433223	  0.313522	  0.131283	  0.538945	  0.623708	  0.504389	  0.365275	  0.079521	  0.754551	  0.581240	  0.824965	  0.606756	  0.932999	
2.4115	  0.664626	  0.971556	  0.111041	  0.430236	  0.310711	  0.129829	  0.536638	  0.618087	  0.505021	  0.369450	  0.080109	  0.754508	  0.580818	  0.825069	  0.605445	  0.931853	
2.412	  0.665126	  0.970375	  0.111334	  0.427254	  0.307905	  0.128395	  0.534344	  0.612510	  0.505628	  0.373643	  0.080689	  0.754328	  0.580321	  0.825093	  0.604085	  0.930604	
2.4125	  0.665528	  0.969023	  0.111609	  0.424278	  0.305105	  0.126980	  0.532062	  0.606978	  0.506210	  0.377853	  0.081259	  0.754012	  0.579751	  0.825035	  0.602675	  0.929252	
2.413	  0.665833	  0.967502	  0.111864	  0.421309	  0.302314	  0.125584	  0.529795	  0.601493	  0.506770	  0.382079	  0.081821	  0.753558	  0.579109	  0.824894	  0.601214	  0.927795	
2.4135	  0.666040	  0.965816	  0.112101	  0.418347	  0.299533	  0.124208	  0.527544	  0.596056	  0.507306	  0.386321	  0.082373	  0.752967	  0.578395	  0.824667	  0.599700	  0.926236	
2.414	  0.666148	  0.963968	  0.112318	  0.415393	  0.296763	  0.122851	  0.525311	  0.590668	  0.507821	  0.390577	  0.082915	  0.752237	  0.577613	  0.824352	  0.598134	  0.924573	
